<svg xmlns="http://www.w3.org/2000/svg" width="244.352" height="46.781" viewBox="0 0 244.352 46.781">
  <g id="itjQBR.tif" transform="translate(2332.913 -272.724)">
    <g id="Group_82" data-name="Group 82" transform="translate(-2332.913 272.724)">
      <path id="Path_519" data-name="Path 519" d="M-2142.5,343.706a5.726,5.726,0,0,1,3.489-3.372,5.988,5.988,0,0,1,6.65,1.846,6.424,6.424,0,0,1,1.063,4.064c.008,4.995-.018,9.99-.036,14.984,0,.648-.258.908-.922.917-1.175.016-2.351.01-3.526,0-.81,0-1.047-.243-1.048-1.057q0-6.234,0-12.468c0-.419-.014-.839-.047-1.257a2.089,2.089,0,0,0-1.279-2.061,2.628,2.628,0,0,0-2.772.468,3.088,3.088,0,0,0-1,2.3c-.067,1.34-.1,2.683-.1,4.025-.015,3,0,6-.006,9,0,.807-.228,1.036-1.051,1.042q-1.7.012-3.4,0c-.806-.005-1.046-.248-1.047-1.06,0-4.114.007-8.228-.01-12.342a8.958,8.958,0,0,0-.2-1.87,2.077,2.077,0,0,0-1.93-1.781,2.168,2.168,0,0,0-2.529,1.413,11.6,11.6,0,0,0-.509,3.2c-.059,3.777-.022,7.556-.023,11.334,0,.9-.205,1.1-1.116,1.1-1.133.005-2.267.009-3.4,0-.734-.007-.98-.257-.981-.992q-.005-9.855,0-19.71c0-.753.231-1,.962-1.015,1.112-.018,2.225-.016,3.337,0,.71.01.938.253.945.958s0,1.384.059,2.145a5.437,5.437,0,0,1,5.211-3.53C-2145.148,339.973-2143.541,341.332-2142.5,343.706Z" transform="translate(2180.241 -331.527)" fill="#fff"/>
      <path id="Path_520" data-name="Path 520" d="M-1222.2,341.42c.86-.471,1.649-.935,2.466-1.342a12.361,12.361,0,0,1,5.753-1.376,5.479,5.479,0,0,1,5.287,2.979c.21-.134.4-.251.583-.372a14.156,14.156,0,0,1,8.639-2.589,5.416,5.416,0,0,1,5.416,5.161c.06.646.093,1.3.094,1.946q.012,6.925,0,13.851c0,1.141-.175,1.317-1.3,1.317-.63,0-1.259,0-1.889,0-.91,0-1.12-.207-1.13-1.1-.007-.588,0-1.175,0-1.763,0-3.924.008-7.849-.008-11.773a8.971,8.971,0,0,0-.185-1.808,2.808,2.808,0,0,0-2.881-2.4,11.657,11.657,0,0,0-6.283,1.719.724.724,0,0,0-.3.532q-.018,7.649,0,15.3c0,1.129-.172,1.3-1.321,1.3-.609,0-1.217,0-1.826,0-.978,0-1.176-.2-1.177-1.18,0-4.491.006-8.982-.01-13.473a8.656,8.656,0,0,0-.2-1.869,2.782,2.782,0,0,0-2.819-2.321,11.133,11.133,0,0,0-6.286,1.678,1.031,1.031,0,0,0-.327.772c-.019,5.016-.014,10.031-.014,15.047,0,1.189-.156,1.347-1.334,1.347-.693,0-1.385,0-2.078,0a.8.8,0,0,1-.909-.881c0-.147,0-.294,0-.441q0-9.507,0-19.013c0-1.2.13-1.326,1.347-1.326.5,0,1.007.012,1.511.01a.846.846,0,0,1,.923.759Z" transform="translate(1365.619 -330.391)" fill="#fff"/>
      <path id="Path_521" data-name="Path 521" d="M-1904.464,358.214c-.289.26-.6.543-.911.82a7.962,7.962,0,0,1-7.419,1.7,5.292,5.292,0,0,1-4.146-5.073c-.29-3.886,1.537-6.666,5.306-7.675a58.494,58.494,0,0,1,6-.987c.12-.019.241-.029.478-.057a21.7,21.7,0,0,0-.229-2.566,2.283,2.283,0,0,0-.741-1.194,3.247,3.247,0,0,0-4.9,1.437c-.362,1.1-.362,1.1-1.494.988-.96-.093-1.92-.185-2.878-.292-.837-.093-1.037-.4-.842-1.229a6.644,6.644,0,0,1,4.342-4.921,12.129,12.129,0,0,1,7.781-.334,5.64,5.64,0,0,1,4.515,5.822c.073,2.767.059,5.538.021,8.307a5.444,5.444,0,0,0,1.225,3.6c.724.909.685,1.115-.182,1.851-.784.665-1.558,1.34-2.339,2.008-.667.571-.994.6-1.624-.025C-1903.174,359.724-1903.782,358.977-1904.464,358.214Zm-.763-8.053a9.543,9.543,0,0,0-3.666.576,3.612,3.612,0,0,0-1.937,4.848,2.129,2.129,0,0,0,2.005,1.364,3.348,3.348,0,0,0,3.109-2.241A10.534,10.534,0,0,0-1905.227,350.161Z" transform="translate(1969.355 -330.083)" fill="#fff"/>
      <path id="Path_522" data-name="Path 522" d="M-2321.095,346.96c-.071-.9-.079-1.738-.218-2.557a2.062,2.062,0,0,0-1.448-1.6,3.252,3.252,0,0,0-4.3,2.129c-.166.709-.4.813-1.14.73-1.021-.114-2.043-.211-3.065-.32-.932-.1-1.123-.377-.9-1.29a6.737,6.737,0,0,1,4.676-5,12.232,12.232,0,0,1,7.368-.223,5.631,5.631,0,0,1,4.574,5.773c.085,2.767.058,5.538.023,8.307a5.554,5.554,0,0,0,1.225,3.67c.757.955.718,1.1-.211,1.88-.785.663-1.557,1.342-2.34,2.008-.625.532-.956.565-1.525,0-.708-.7-1.35-1.475-2.034-2.231-.241.216-.525.463-.8.718a7.994,7.994,0,0,1-7.328,1.854,5.348,5.348,0,0,1-4.35-5.175c-.285-4.1,1.839-6.94,6.014-7.848,1.755-.381,3.562-.523,5.346-.774C-2321.427,347-2321.327,346.99-2321.095,346.96Zm.012,3.073c-1.249.214-2.332.313-3.366.6a3.361,3.361,0,0,0-2.616,3.221,2.872,2.872,0,0,0,1.466,2.952,2.707,2.707,0,0,0,3.193-.948,5.91,5.91,0,0,0,1.061-2.227A27.368,27.368,0,0,0-2321.083,350.033Z" transform="translate(2332.913 -330.103)" fill="#fff"/>
      <path id="Path_523" data-name="Path 523" d="M-1432.9,343.807c.226-.425.432-.862.681-1.273,1.3-2.136,3.331-2.969,6.019-2.482a5.023,5.023,0,0,1,4.13,4.35,24.035,24.035,0,0,1,.281,3.631c.033,4.3.013,8.605.012,12.908,0,.927-.209,1.134-1.153,1.138-1.112,0-2.225.007-3.337,0-.787-.006-1.009-.231-1.009-1.013,0-3.9.009-7.808-.01-11.711a14.13,14.13,0,0,0-.192-2.314,2.211,2.211,0,0,0-1.9-2.059,2.523,2.523,0,0,0-2.591,1.406,7.145,7.145,0,0,0-.719,3.412c-.007,3.652,0,7.3,0,10.956,0,1.141-.182,1.323-1.308,1.324-1.07,0-2.141.007-3.211,0-.742-.007-.972-.247-.98-.981,0-.021,0-.042,0-.063q-.021-9.7-.042-19.391c0-1.12.163-1.286,1.265-1.288.986,0,1.973-.01,2.959,0,.8.011,1,.219,1,1.015,0,.811,0,1.621,0,2.432Z" transform="translate(1550.914 -331.454)" fill="#fff"/>
      <path id="Path_524" data-name="Path 524" d="M-1605.794,351.3a14.1,14.1,0,0,1,1.471-6.621,8.005,8.005,0,0,1,7.071-4.6,7.83,7.83,0,0,1,7.686,3.968,14.016,14.016,0,0,1,.314,14.011,8.052,8.052,0,0,1-8.44,4.511c-3.545-.322-5.78-2.417-7.09-5.609A14.687,14.687,0,0,1-1605.794,351.3Zm12.361.2-.137-.017a8.022,8.022,0,0,0-.007-1.069,39.52,39.52,0,0,0-.674-4.391,2.4,2.4,0,0,0-3.061-1.713,2.891,2.891,0,0,0-2.165,2.512,20.668,20.668,0,0,0-.159,7.688,9.006,9.006,0,0,0,.944,2.826,2.11,2.11,0,0,0,2.551.992,2.94,2.94,0,0,0,2.148-2.544C-1593.7,354.373-1593.611,352.925-1593.433,351.495Z" transform="translate(1697.37 -331.583)" fill="#fff"/>
      <path id="Path_525" data-name="Path 525" d="M-2154.49,547.822a50.512,50.512,0,0,1-32.994-12.125,4.337,4.337,0,0,1-.822-.771.888.888,0,0,1-.109-.78c.107-.168.493-.2.759-.207.166,0,.34.143.5.235a67.823,67.823,0,0,0,23.433,7.963,66.332,66.332,0,0,0,17.558.334,68.612,68.612,0,0,0,18.146-4.66,3.23,3.23,0,0,1,.836-.237.968.968,0,0,1,1.077.591.945.945,0,0,1-.361,1.169c-.392.314-.809.6-1.229.876a45.817,45.817,0,0,1-15.317,6.305A51.035,51.035,0,0,1-2154.49,547.822Z" transform="translate(2206.659 -501.041)" fill="#fff"/>
      <path id="Path_526" data-name="Path 526" d="M-912.973,363.077a15.184,15.184,0,0,1-5.59,2.619,9.929,9.929,0,0,1-4.978-.023,5.36,5.36,0,0,1-3.914-4.813,13.744,13.744,0,0,1-.115-1.944q-.014-6.955,0-13.909c0-1.139.172-1.312,1.305-1.315.692,0,1.385-.013,2.077.006.712.019.933.242.938.966.012,1.678,0,3.357.006,5.035.012,3.1-.034,6.211.069,9.312.08,2.422,1.386,3.552,3.812,3.528a10.923,10.923,0,0,0,5.843-1.881,1,1,0,0,0,.275-.74q.023-7.458.012-14.916c0-1.158.146-1.305,1.3-1.309.692,0,1.385-.012,2.077.007s.923.246.924.91q.008,9.913,0,19.826c0,.666-.244.9-.918.915-.587.015-1.175-.005-1.762.005a.961.961,0,0,1-1.079-.9C-912.772,364.023-912.868,363.6-912.973,363.077Z" transform="translate(1104.568 -334.749)" fill="#fff"/>
      <path id="Path_527" data-name="Path 527" d="M-1738.742,357.648a16.608,16.608,0,0,1,6.333,1.114c.326.142.645.3.964.457a1.372,1.372,0,0,1,.812,1.313c.007.944.015,1.888,0,2.832-.014.771-.475,1.057-1.167.737a15.152,15.152,0,0,0-13.527.036c-.626.3-1.087.029-1.1-.672a29.569,29.569,0,0,1,.027-3.4,3.944,3.944,0,0,1,.677-1.78c2.36-3.415,4.768-6.8,7.16-10.189.129-.183.249-.373.442-.665h-1.382c-1.741,0-3.482,0-5.224,0-.733,0-.981-.244-.991-.978-.011-.818-.012-1.637,0-2.454.011-.7.263-.951.954-.951q6.388-.006,12.776,0c.706,0,.894.25.968.938a6.38,6.38,0,0,1-1.449,4.818c-2.06,2.67-3.932,5.486-5.881,8.241C-1738.467,357.215-1738.572,357.388-1738.742,357.648Z" transform="translate(1820.324 -334.192)" fill="#fff"/>
      <path id="Path_528" data-name="Path 528" d="M-738.977,338.713a15.557,15.557,0,0,1,5.237.919c.939.33,1.082.537,1.086,1.512,0,.294,0,.588,0,.881-.011.812-.258,1.007-1.055.826-.939-.214-1.867-.484-2.815-.641a10.461,10.461,0,0,0-4.371.048,2.434,2.434,0,0,0-2.057,2.1,2.3,2.3,0,0,0,1.475,2.694c1.5.7,3.059,1.253,4.582,1.9.924.39,1.854.781,2.736,1.257,3.794,2.05,3.137,7.075,1.148,9.015a8.178,8.178,0,0,1-4.8,2.278,16.77,16.77,0,0,1-8.284-.957c-1.04-.4-1.157-.581-1.172-1.664-.026-1.881.038-1.922,1.853-1.383a16.935,16.935,0,0,0,6.705.744,5.765,5.765,0,0,0,2.112-.711c1.369-.763,1.831-3.51-.143-4.43-1.609-.75-3.3-1.335-4.939-2.013a19,19,0,0,1-2.341-1.06,5.605,5.605,0,0,1-2.944-5.683,5.607,5.607,0,0,1,3.517-4.761A9.779,9.779,0,0,1-738.977,338.713Z" transform="translate(946.968 -330.401)" fill="#fff"/>
      <path id="Path_529" data-name="Path 529" d="M-511.986,362.818a35.251,35.251,0,0,1-4.1-.779,8.236,8.236,0,0,1-5.639-5.79,16.151,16.151,0,0,1-.058-9.363,9.159,9.159,0,0,1,8.114-6.7,14.4,14.4,0,0,1,6.328.634c.849.293,1.029.516,1.077,1.4a8.764,8.764,0,0,1-.007,1.132c-.06.782-.3.965-1.059.762a13.907,13.907,0,0,0-4.664-.525,5.808,5.808,0,0,0-4.589,2.1,6.5,6.5,0,0,0-1.155,3.025,15.746,15.746,0,0,0,.181,6.185,5.242,5.242,0,0,0,4.832,4.185,13.4,13.4,0,0,0,5.286-.481c1.134-.313,1.328-.153,1.329,1.039,0,1.865-.041,2-1.863,2.461C-509.269,362.433-510.606,362.58-511.986,362.818Z" transform="translate(750.466 -331.601)" fill="#fff"/>
      <path id="Path_530" data-name="Path 530" d="M-587.606,354.481q0,4.876,0,9.751c0,.908-.206,1.117-1.1,1.122-.671,0-1.342,0-2.013,0-.989,0-1.189-.19-1.191-1.163q-.008-3.554,0-7.109,0-6.039,0-12.079c0-1.172.136-1.307,1.295-1.311.671,0,1.342-.011,2.013,0,.791.018.993.232.994,1.032Q-587.6,349.6-587.606,354.481Z" transform="translate(811.177 -334.751)" fill="#fff"/>
      <path id="Path_531" data-name="Path 531" d="M-1738.5,522.1c1.021.152,2.189.267,3.329.513,1.069.231,1.3.584,1.3,1.676a14.383,14.383,0,0,1-1.341,5.771,11.924,11.924,0,0,1-2.747,4.018,1.987,1.987,0,0,1-.527.438,3.085,3.085,0,0,1-.761.114,2.147,2.147,0,0,1-.033-.743c.63-1.9,1.31-3.793,1.926-5.7a5.95,5.95,0,0,0,.224-1.61c.031-.914-.224-1.346-1.116-1.462a25.933,25.933,0,0,0-3.872-.2c-1.274.026-2.544.23-3.818.319a2.441,2.441,0,0,1-.773-.215c.135-.26.2-.612.417-.766a10.51,10.51,0,0,1,4.515-1.782C-1740.748,522.3-1739.7,522.232-1738.5,522.1Z" transform="translate(1820.538 -490.694)" fill="#fff"/>
      <path id="Path_532" data-name="Path 532" d="M-593.189,272.724a2.436,2.436,0,0,1,2.662,2.6,2.486,2.486,0,0,1-2.723,2.562,2.457,2.457,0,0,1-2.65-2.621A2.418,2.418,0,0,1-593.189,272.724Z" transform="translate(814.664 -272.724)" fill="#fff"/>
    </g>
  </g>
</svg>
