<svg xmlns="http://www.w3.org/2000/svg" width="115.117" height="27.627" viewBox="0 0 115.117 27.627">
  <path id="logosvg.com" d="M394.093,369.134h.613c.117,3.267-2.567,6.622-5.98,6.564A6.717,6.717,0,0,1,394.093,369.134Zm76.054,1.663a2.184,2.184,0,0,1,3.209,2.158c-.058,1.2-1.2,1.809-2.217,2.072a3.5,3.5,0,0,1-1.576-.875A2.14,2.14,0,0,1,470.147,370.8Zm-65.96.175h4.521c2.83,6.768,5.572,13.594,8.344,20.421,2.859-6.768,5.543-13.623,8.373-20.392h4.521c.029,8.46,0,16.891,0,25.351-1.2,0-2.392,0-3.559.029-.058-6.185.058-12.369-.058-18.525-.262.467-.5.962-.729,1.458-2.3,5.689-4.668,11.348-7,17.037-1.021,0-2.042.029-3.063-.058-2.451-6.243-5.105-12.369-7.585-18.583-.146,6.214-.029,12.4-.058,18.612-1.225.029-2.451.029-3.7.029C404.187,387.863,404.158,379.4,404.187,370.972Zm-20.8,4.813c1.984-.35,3.734.846,5.63,1.167,1.779-.38,3.472-1.43,5.339-1.255a6.9,6.9,0,0,1,5.367,2.626,6.206,6.206,0,0,0-3.034,6.1c.146,2.276,1.9,4,3.793,5.018-1.021,2.567-2.422,5.222-4.755,6.826-2.334,1.487-4.7-1.2-7.147-.583-1.226.233-2.334.758-3.559,1.079h-.963a6.472,6.472,0,0,1-2.158-1.371,17.836,17.836,0,0,1-4.814-10.3V383.05C377.318,379.607,379.856,376.252,383.386,375.785Zm71.007,3.092a9.589,9.589,0,0,1,9.219-.292,5.691,5.691,0,0,1,2.917,4.785h-3.5a5.591,5.591,0,0,0-1.079-2.013,4.5,4.5,0,0,0-3.88-.788c-1.109.263-2.363,1.108-2.217,2.392-.117,1.021.788,1.692,1.633,1.983,2.1.758,4.376.9,6.418,1.751a4.624,4.624,0,0,1,2.684,2.392,5.1,5.1,0,0,1-1.662,6.009,8.976,8.976,0,0,1-4.26,1.634h-2.772a8.224,8.224,0,0,1-4.784-2.3,6.671,6.671,0,0,1-1.517-3.5c1.255,0,2.509.029,3.764.117a3.754,3.754,0,0,0,2.333,2.567c1.6.35,3.647.438,4.9-.817a2.007,2.007,0,0,0-.5-3.18c-2.8-1.313-6.331-.963-8.694-3.209C451.213,384.333,451.885,380.424,454.393,378.878Zm24.943-.058a9.516,9.516,0,0,1,9.1-.263,7.317,7.317,0,0,1,3.763,5.689c-1.2.029-2.392.029-3.588.029a6,6,0,0,0-1.634-2.655,5.053,5.053,0,0,0-4.376-.671c-1.838.583-2.888,2.48-3.209,4.288-.292,2.217-.234,4.726,1.167,6.564a4.73,4.73,0,0,0,6.418.876,5.6,5.6,0,0,0,1.6-2.6c1.2,0,2.392,0,3.588.029-.233,3.647-3.559,6.36-7.06,6.622H483.1a8.7,8.7,0,0,1-5.485-2.684,10.384,10.384,0,0,1-2.247-7.293C475.4,383.721,476.682,380.482,479.337,378.819Zm-45.948-.962h3.793c.117,4.142-.117,8.256.117,12.4.146,3.18,4.434,4.142,6.622,2.334a4.852,4.852,0,0,0,1.663-3.91c.029-3.617-.029-7.205.029-10.823h3.822c0,6.185.029,12.369,0,18.583-1.226,0-2.48-.029-3.7-.146v-3a6.149,6.149,0,0,1-5.018,3.471h-1.663a6.239,6.239,0,0,1-4.347-2.392,7.885,7.885,0,0,1-1.313-4.9Zm35.912,0c1.2,0,2.421,0,3.617-.029a7.826,7.826,0,0,1,.2,1.633c-.029,5.6,0,11.2-.029,16.833-1.283.029-2.538.029-3.822.029C469.272,390.168,469.242,384.012,469.3,377.857Z" transform="translate(-377.085 -369.134)" fill="#fff"/>
</svg>
