<svg id="g8252" xmlns="http://www.w3.org/2000/svg" width="143.513" height="27.44" viewBox="0 0 143.513 27.44">
  <path id="path8175" d="M234.1-68.588c0,5.755,3.545,9.2,8.812,9.2,2.626,0,4.836-.732,6.071-2.655v2.655h4.808V-86.8H248.8v11.653c-1.134-1.923-3.229-2.784-5.855-2.784-5.138-.014-8.84,3.5-8.84,9.343Zm14.854,0c0,3.286-2.239,5.339-4.923,5.339-2.784,0-4.923-2.052-4.923-5.339,0-3.344,2.153-5.439,4.923-5.439C246.715-74.027,248.954-71.9,248.954-68.588Z" transform="translate(-200.504 86.8)" fill="#fff"/>
  <path id="path8177" d="M394.808-13.7a4.021,4.021,0,0,1-4.305,3.186c-2.655,0-4.836-1.607-4.894-4.449h12.586a10.287,10.287,0,0,0,.23-2.268c0-5.095-3.473-7.965-8.6-7.965a8.848,8.848,0,0,0-9.228,9.171c0,5.884,4.148,9.414,9.888,9.414,4.334,0,7.276-1.808,8.568-5.41Zm-9.2-4.592a4.159,4.159,0,0,1,4.234-3.258c2.239,0,3.76,1.206,3.76,3.1l-.029.158Z" transform="translate(-325.979 34.04)" fill="#fff"/>
  <path id="path8179" d="M523.908-13.7a4.021,4.021,0,0,1-4.305,3.186c-2.655,0-4.836-1.607-4.894-4.449h12.586a10.29,10.29,0,0,0,.23-2.268c0-5.095-3.473-7.965-8.6-7.965a8.848,8.848,0,0,0-9.228,9.171c0,5.884,4.147,9.414,9.888,9.414,4.334,0,7.276-1.808,8.568-5.41Zm-9.2-4.592a4.159,4.159,0,0,1,4.234-3.258c2.239,0,3.76,1.206,3.76,3.1l-.029.158Z" transform="translate(-436.551 34.04)" fill="#fff"/>
  <path id="path8181" d="M656.748-6.515v-4.521H646.257l10.2-9.931V-25.1H640.316v4.305h9.859L640-10.82v4.305Z" transform="translate(-548.151 33.955)" fill="#fff"/>
  <path id="path8183" d="M773.608-13.7a4.021,4.021,0,0,1-4.305,3.186c-2.655,0-4.836-1.607-4.894-4.449h12.586a10.287,10.287,0,0,0,.23-2.268c0-5.095-3.473-7.965-8.6-7.965a8.848,8.848,0,0,0-9.228,9.171c0,5.884,4.148,9.414,9.888,9.414,4.334,0,7.276-1.808,8.568-5.41Zm-9.2-4.592a4.159,4.159,0,0,1,4.234-3.258c2.239,0,3.76,1.206,3.76,3.1l-.029.158Z" transform="translate(-650.416 34.04)" fill="#fff"/>
  <rect id="rect8185" width="6.157" height="3.602" transform="translate(22.316 8.855)" fill="#fff"/>
  <rect id="rect8192" width="6.157" height="3.602" transform="translate(22.316 13.849)" fill="#fff"/>
  <rect id="rect8199" width="6.157" height="3.602" transform="translate(22.316 18.843)" fill="#fff"/>
  <rect id="rect8206" width="6.157" height="3.602" transform="translate(0 23.838)" fill="#fff"/>
  <rect id="rect8213" width="6.157" height="3.602" transform="translate(7.434 23.838)" fill="#fff"/>
  <rect id="rect8220" width="6.157" height="3.602" transform="translate(14.882 23.838)" fill="#fff"/>
  <rect id="rect8227" width="6.157" height="3.602" transform="translate(22.316 23.838)" fill="#fff"/>
  <rect id="rect8234" width="6.157" height="3.602" transform="translate(14.882 18.843)" fill="#fff"/>
  <rect id="rect8241" width="6.157" height="3.602" transform="translate(7.434 18.843)" fill="#fff"/>
  <rect id="rect8248" width="6.157" height="3.602" transform="translate(7.434 13.849)" fill="#fff"/>
  <path id="path8250" d="M906.66-18.514v.531h4.865V-19.4c0-3.186-1.995-5.5-5.339-5.5a4.61,4.61,0,0,0-4.463,2.784V-24.9H896.7V-6.344h5.023V-18.3c0-1.894,1.019-2.942,2.583-2.942A2.566,2.566,0,0,1,906.66-18.514Z" transform="translate(-768.012 33.783)" fill="#fff"/>
</svg>
