<svg id="Logo_TikTok" xmlns="http://www.w3.org/2000/svg" width="135.838" height="39.581" viewBox="0 0 135.838 39.581">
  <path id="Path_404" data-name="Path 404" d="M59.88,24.36a15.545,15.545,0,0,0,9.068,2.9v-6.5a9.183,9.183,0,0,1-1.9-.2v5.119a15.548,15.548,0,0,1-9.068-2.9V36.048a12.03,12.03,0,0,1-18.723,9.988,12.029,12.029,0,0,0,20.627-8.4V24.36ZM62.229,17.8a9.062,9.062,0,0,1-2.349-5.307v-.836h-1.8A9.1,9.1,0,0,0,62.229,17.8ZM43.454,40.941a5.5,5.5,0,0,1,6.048-8.57V25.722a12.137,12.137,0,0,0-1.9-.11v5.175a5.5,5.5,0,0,0-4.145,10.153Z" transform="translate(-33.921 -10.072)" fill="#ff004f"/>
  <path id="Path_405" data-name="Path 405" d="M36.168,22.776a15.548,15.548,0,0,0,9.068,2.9V20.557A9.1,9.1,0,0,1,40.422,17.8a9.105,9.105,0,0,1-4.154-6.143h-4.74V37.631a5.5,5.5,0,0,1-9.881,3.31,5.5,5.5,0,0,1,4.145-10.153V25.613a12.02,12.02,0,0,0-8.346,20.423,12.03,12.03,0,0,0,18.723-9.988V22.776Z" transform="translate(-12.114 -10.072)" fill="#fff"/>
  <path id="Path_406" data-name="Path 406" d="M33.122,10.485V9.1a9.07,9.07,0,0,1-4.814-1.375A9.1,9.1,0,0,0,33.122,10.485Zm-8.968-8.9q-.065-.371-.1-.747V0H17.51V25.976a5.5,5.5,0,0,1-7.977,4.893,5.5,5.5,0,0,0,9.881-3.31V1.583ZM13.678,15.541V14.067a12.148,12.148,0,0,0-1.65-.112,12.02,12.02,0,0,0-6.7,22.008,12.02,12.02,0,0,1,8.346-20.423Z" fill="#00f2ea"/>
  <path id="Path_407" data-name="Path 407" d="M793.878,131.048a8.537,8.537,0,1,0,0-17.073h-1.3a8.537,8.537,0,1,1,0,17.073Z" transform="translate(-684.918 -98.493)" fill="#ff004f"/>
  <path id="Path_408" data-name="Path 408" d="M728.717,113.975h-1.3a8.537,8.537,0,1,0,0,17.073h1.3a8.537,8.537,0,1,1,0-17.073Z" transform="translate(-621.172 -98.493)" fill="#00f2ea" opacity="0.8"/>
  <path id="Path_409" data-name="Path 409" d="M310.062,85.572V89.9h5.068v16.487h5.07V90.016h4.126l1.415-4.444H310.062Zm41.5,0V89.9h5.068v16.487h5.07V90.016h4.126l1.414-4.444H351.558Zm-24.873,2.455a2.475,2.475,0,1,1,2.474,2.456A2.464,2.464,0,0,1,326.685,88.027Zm0,4.21h4.95v14.149h-4.95Zm7.072-6.665v20.814h4.952v-5.378l1.533-1.4,4.833,6.9h5.3l-6.956-10.056,6.248-6.081h-6.012l-4.95,4.911v-9.7Zm53.4,0v20.814h4.952v-5.378l1.532-1.4,4.834,6.9h5.305l-6.956-10.056,6.248-6.081h-6.012l-4.952,4.911v-9.7Z" transform="translate(-267.944 -73.948)" fill="#fff"/>
  <path id="Path_410" data-name="Path 410" d="M737.082,131.048a8.537,8.537,0,1,0,0-17.073h-.118a8.537,8.537,0,1,0,0,17.073Zm-4.244-8.536a4.185,4.185,0,1,1,4.186,4.152A4.168,4.168,0,0,1,732.838,122.512Z" transform="translate(-629.419 -98.493)" fill="#fff"/>
</svg>
